<?xml version="1.0" encoding="UTF-8" standalone="no"?>
<!-- Created with Inkscape (http://www.inkscape.org/) -->

<svg
   xmlns:dc="http://purl.org/dc/elements/1.1/"
   xmlns:cc="http://creativecommons.org/ns#"
   xmlns:rdf="http://www.w3.org/1999/02/22-rdf-syntax-ns#"
   xmlns:svg="http://www.w3.org/2000/svg"
   xmlns="http://www.w3.org/2000/svg"
   xmlns:sodipodi="http://sodipodi.sourceforge.net/DTD/sodipodi-0.dtd"
   xmlns:inkscape="http://www.inkscape.org/namespaces/inkscape"
   id="svg5089"
   version="1.1"
   inkscape:version="0.91 r13725"
   width="256"
   height="40.000004"
   xml:space="preserve"
   sodipodi:docname="Aiwa_logo.svg"><metadata
     id="metadata5095"><rdf:RDF><cc:Work
         rdf:about=""><dc:format>image/svg+xml</dc:format><dc:type
           rdf:resource="http://purl.org/dc/dcmitype/StillImage" /><dc:title /></cc:Work></rdf:RDF></metadata><defs
     id="defs5093" /><sodipodi:namedview
     pagecolor="#ffffff"
     bordercolor="#666666"
     borderopacity="1"
     objecttolerance="10"
     gridtolerance="10"
     guidetolerance="10"
     inkscape:pageopacity="0"
     inkscape:pageshadow="2"
     inkscape:window-width="1366"
     inkscape:window-height="705"
     id="namedview5091"
     showgrid="false"
     fit-margin-top="0"
     fit-margin-left="0"
     fit-margin-right="0"
     fit-margin-bottom="0"
     inkscape:zoom="0.69258021"
     inkscape:cx="166.14524"
     inkscape:cy="-129.43754"
     inkscape:window-x="-8"
     inkscape:window-y="-8"
     inkscape:window-maximized="1"
     inkscape:current-layer="g5097" /><g
     id="g5097"
     inkscape:groupmode="layer"
     inkscape:label="ink_ext_XXXXXX"
     transform="matrix(1.25,0,0,-1.25,-3.5307498,141.98125)"><path
       style="fill:#ff220b;fill-opacity:1;fill-rule:evenodd;stroke:none"
       d="M 19.052475,113.57163 C 10.19815,112.8232 5.3699816,109.70943 5.3699816,103.8107 l 11.0280894,0 c 0.08724,3.2522 3.041017,4.96753 8.866256,5.11029 l 8.948351,0 c 11.446664,-0.34501 10.551829,-7.16609 1.231424,-7.59783 l -7.087531,-0.40558 -4.214208,-0.27038 C 11.67586,100.04304 3.7862275,97.399647 2.8250379,91.643348 2.7664549,85.859257 8.584886,82.563044 19.68187,81.585 l 4.679413,0 c 1.369125,0.05743 2.713402,0.155525 3.995288,0.270386 6.174745,0.517946 11.18199,1.700834 14.065603,3.974669 0.961168,-2.245066 2.66721,-3.89993 6.075027,-4.245055 l 9.222001,0 -0.10946,4.758789 c -2.824943,-0.201497 -4.338664,1.123834 -4.542588,4.001708 l 0.136825,11.734743 c -0.23304,6.64824 -5.049278,10.85869 -16.583182,11.49139 l -17.568322,0 z m 46.930953,0 0,-31.98663 10.53552,0 0,31.98663 -10.53552,0 z m 25.668357,0 c -2.359299,-0.11465 -4.702508,-0.52564 -7.032801,-0.78413 l 0.05473,-3.62316 c 2.796377,0.11573 4.499346,-1.43954 4.761507,-4.92102 l 0,-14.627865 c -0.145362,-4.144039 1.809478,-6.882505 6.731787,-7.976378 l 0,-0.05408 40.910652,0 c 4.95088,1.093327 6.90255,3.886416 6.78652,8.030455 l -0.0274,0 0,14.627868 c 0.2627,3.48148 1.93853,5.03675 4.73414,4.92102 l 0.0821,3.62316 c -2.3293,0.25849 -4.67394,0.66948 -7.0328,0.78413 -4.89395,0.20117 -7.67642,-1.86566 -7.88111,-6.32703 l 0,-17.439878 c -0.46521,-2.791791 -1.97028,-4.021929 -4.24158,-4.136901 l -0.82095,0 -0.10946,0 -6.78651,0 0,27.903809 -10.53552,0 0,-27.903809 -6.54024,0 -0.13682,0 -0.82095,0 c -2.27129,0.114972 -3.749774,1.34511 -4.186843,4.136901 l 0,17.439878 -0.02736,0 c -0.174917,4.46137 -2.958808,6.5282 -7.881117,6.32703 z m 77.360815,0 c -8.85421,-0.74843 -13.73722,-3.8622 -13.73722,-9.76093 l 11.05545,0 c 0.0876,3.2522 3.0408,4.96753 8.86626,5.11029 l 8.94835,0 c 11.44623,-0.34501 10.55194,-7.16609 1.23143,-7.59783 l -7.1149,-0.40558 -4.15948,-0.27038 C 161.6361,100.04304 153.74841,97.399647 152.7578,91.643348 152.7293,85.859257 158.49022,82.563035 169.58727,81.585 l 4.67941,0 c 1.36934,0.05743 2.71351,0.155525 3.99529,0.270386 6.20419,0.517955 11.20979,1.700834 14.09297,3.974669 0.96106,-2.245066 2.696,-3.89993 6.07502,-4.245055 l 9.19464,0 -0.0547,4.758789 c -2.82516,-0.201497 -4.3368,1.123834 -4.56995,4.001708 l 0.13682,11.734743 c -0.23205,6.64824 -5.07785,10.85869 -16.58318,11.49139 l -17.54096,0 z M 42.367444,98.78153 c 0.378403,-6.935821 -4.079025,-11.562013 -14.010873,-12.627012 -0.233041,-0.02877 -0.451523,-0.02542 -0.684125,-0.05408 l -6.786517,0 c -4.485231,0.489187 -6.276433,2.378096 -6.567597,5.083251 -0.145472,3.079481 2.489338,4.425025 7.032802,4.569518 l 7.005437,0.594849 6.321312,0.56781 c 2.854496,0.345229 5.534076,1.031256 7.689561,1.865661 z m 149.932766,0 c 0.35027,-6.935821 -4.07739,-11.562013 -14.03824,-12.627012 -0.2036,-0.02877 -0.42471,-0.02542 -0.6294,-0.05408 l -6.78651,0 c -4.48458,0.489187 -6.30161,2.378096 -6.62233,5.083251 -0.14558,3.079481 2.51539,4.425025 7.06017,4.569518 l 6.97807,0.594849 6.32131,0.56781 c 2.85472,0.345229 5.56166,1.031256 7.71693,1.865661 z"
       id="path5103"
       inkscape:connector-curvature="0" /></g></svg>