<?xml version="1.0" encoding="utf-8"?>
<!-- Generator: Adobe Illustrator 24.3.0, SVG Export Plug-In . SVG Version: 6.00 Build 0)  -->
<svg version="1.1" id="Layer_1" xmlns="http://www.w3.org/2000/svg" xmlns:xlink="http://www.w3.org/1999/xlink" x="0px" y="0px"
	 viewBox="0 0 783.7 148" style="enable-background:new 0 0 783.7 148;" xml:space="preserve">
<style type="text/css">
	.st0{fill-rule:evenodd;clip-rule:evenodd;fill:#525361;}
	.st1{fill-rule:evenodd;clip-rule:evenodd;fill:#825FE8;}
	.st2{fill:#525361;}
	.st3{font-family:'Inter-Medium';}
	.st4{font-size:66px;}
	.st5{letter-spacing:6;}
</style>
<g id="Logo" transform="translate(-0.000000, 0.000000)">
	<path id="Fill-1" class="st0" d="M176.5,147.5h-22.2V88.7h78.4c18.3,0,33.2-14.9,33.2-33.2s-14.9-33.2-33.2-33.2h-77.1V0h77.1
		c30.6,0,55.4,24.9,55.4,55.5c0,30.6-24.9,55.5-55.4,55.5h-56.2V147.5z"/>
	<path id="Fill-3" class="st1" d="M126,111H55.4C24.9,111,0,86.1,0,55.5C0,24.9,24.9,0,55.4,0H126v22.3H55.4
		c-18.3,0-33.2,14.9-33.2,33.2s14.9,33.2,33.2,33.2H126V111z"/>
</g>
<text transform="matrix(1 0 0 1 342.6378 79.5814)" class="st2 st3 st4 st5">CASEPACER</text>
</svg>
