<?xml version="1.0" encoding="UTF-8" standalone="no"?>
<!-- Created with Inkscape (http://www.inkscape.org/) -->

<svg
   xmlns:dc="http://purl.org/dc/elements/1.1/"
   xmlns:cc="http://creativecommons.org/ns#"
   xmlns:rdf="http://www.w3.org/1999/02/22-rdf-syntax-ns#"
   xmlns:svg="http://www.w3.org/2000/svg"
   xmlns="http://www.w3.org/2000/svg"
   xmlns:sodipodi="http://sodipodi.sourceforge.net/DTD/sodipodi-0.dtd"
   xmlns:inkscape="http://www.inkscape.org/namespaces/inkscape"
   width="219.2625"
   height="76.077499"
   id="svg2"
   version="1.1"
   inkscape:version="0.48.2 r9819"
   sodipodi:docname="KUSA logo.svg">
  <defs
     id="defs4">
    <inkscape:perspective
       id="perspective3161"
       inkscape:persp3d-origin="372.04724 : 350.78739 : 1"
       inkscape:vp_z="892.66591 : 929.03824 : 1"
       inkscape:vp_y="0 : 1000 : 0"
       inkscape:vp_x="-145.71428 : 631.89538 : 1"
       sodipodi:type="inkscape:persp3d" />
  </defs>
  <sodipodi:namedview
     id="base"
     pagecolor="#ffffff"
     bordercolor="#666666"
     borderopacity="1.0"
     inkscape:pageopacity="0.0"
     inkscape:pageshadow="2"
     inkscape:zoom="2.34"
     inkscape:cx="122.94613"
     inkscape:cy="69.447838"
     inkscape:document-units="px"
     inkscape:current-layer="layer1"
     showgrid="false"
     fit-margin-top="0"
     fit-margin-left="0"
     fit-margin-right="0"
     fit-margin-bottom="0"
     inkscape:window-width="1440"
     inkscape:window-height="853"
     inkscape:window-x="-4"
     inkscape:window-y="-4"
     inkscape:window-maximized="1" />
  <metadata
     id="metadata7">
    <rdf:RDF>
      <cc:Work
         rdf:about="">
        <dc:format>image/svg+xml</dc:format>
        <dc:type
           rdf:resource="http://purl.org/dc/dcmitype/StillImage" />
        <dc:title></dc:title>
      </cc:Work>
    </rdf:RDF>
  </metadata>
  <g
     inkscape:label="Layer 1"
     inkscape:groupmode="layer"
     id="layer1"
     transform="translate(-23.523017,-345.16109)">
    <path
       id="path5301"
       style="fill:#005593;fill-opacity:1;fill-rule:nonzero;stroke:none"
       d="m 23.523017,407.87984 219.258753,0 0,-62.71875 -219.258753,0 0,62.71875 z"
       inkscape:connector-curvature="0" />
    <g
       transform="matrix(1.25,0,0,-1.25,43.139267,392.35484)"
       id="g5303">
      <path
         id="path5305"
         style="fill:#001712;fill-opacity:1;fill-rule:nonzero;stroke:none"
         d="m 0,0 -0.046,1.791 0,18.97 L 0,22.552 c 0,2.279 0.316,2.636 2.369,2.815 l 0,0.895 c -2.013,-0.088 -3.535,-0.136 -4.515,-0.136 -1.032,-0.044 -2.549,0.048 -4.566,0.136 l 0,-0.895 c 2.017,-0.179 2.373,-0.582 2.373,-2.815 L -4.339,0 c 0,-2.282 -0.356,-2.639 -2.373,-2.773 l 0,-0.893 c 2.017,0.043 3.534,0.089 4.518,0.089 1.028,0 2.55,-0.046 4.563,-0.089 l 0,0.848 C 0.316,-2.639 0,-2.282 0,0"
         inkscape:connector-curvature="0" />
    </g>
    <g
       transform="matrix(1.25,0,0,-1.25,77.113017,380.49854)"
       id="g5307">
      <path
         id="path5309"
         style="fill:#001712;fill-opacity:1;fill-rule:nonzero;stroke:none"
         d="M 0,0 4.564,12.17 9.128,0 0,0 z m 44.865,-12.034 c -0.31,0.179 -0.582,0.356 -0.85,0.58 -0.357,0.271 -0.669,0.581 -0.937,0.941 -0.27,0.314 -1.077,1.296 -2.42,2.91 l -0.4,0.579 -2.909,3.579 -2.999,3.578 -0.669,0.762 c 5.997,0.805 9.352,3.801 9.352,8.319 0,2.73 -1.39,5.146 -3.669,6.307 -1.835,0.987 -3.178,1.168 -7.829,1.168 l -7.024,0 -2.82,0.044 -1.611,0.043 0,-0.894 c 2.058,-0.179 2.372,-0.582 2.417,-2.815 l 0,-22.552 c -0.045,-2.282 -0.359,-2.639 -2.417,-2.773 l 0,-0.043 c -1.739,0.008 -2.022,0.359 -3.661,4.698 L 8.591,12.706 C 7.785,14.9 7.65,15.3 7.248,16.733 5.775,16.641 4.653,16.641 3.937,16.641 c -0.804,0 -1.965,0.048 -3.531,0.135 l 0,-0.894 c 1.34,-0.089 1.788,-0.361 1.788,-1.206 0,-0.541 -0.402,-1.88 -1.254,-4.161 L -5.993,-7.603 c -1.079,-2.807 -1.592,-3.948 -2.297,-4.392 -1.15,0.525 -2.363,1.794 -4.307,4.392 l -1.384,1.831 c -0.625,0.848 -1.702,2.105 -3.31,3.847 -2.238,2.371 -3.627,3.895 -4.209,4.476 -0.177,0.181 -0.402,0.404 -0.711,0.757 l 7.244,7.833 c 4.024,4.428 4.295,4.652 5.952,4.741 l 0,0.894 c -2.102,-0.087 -3.67,-0.135 -4.744,-0.135 -1.072,-0.044 -2.685,0.048 -4.788,0.135 l 0,-0.894 c 1.654,0 2.103,-0.223 2.103,-1.026 0,-0.629 -0.935,-2.06 -2.684,-3.94 L -26.913,2.371 -26.24,1.7 c 6.081,-6.485 9.217,-10.202 12.481,-14.808 1.299,0.046 2.283,0.046 2.997,0.046 0.343,0 0.678,-0.007 1.054,-0.017 l 0,-0.072 c 0.392,0.008 0.748,0.017 1.099,0.029 0.438,-0.021 0.942,-0.046 1.561,-0.075 l 0,0.111 c 0.56,0.016 1.059,0.024 1.455,0.024 0.943,0 2.327,-0.046 4.161,-0.135 l 0,0.894 c -1.743,0.091 -2.324,0.405 -2.324,1.385 0,0.626 0.356,1.836 1.03,3.58 l 1.878,4.832 10.916,0 1.832,-4.832 c 0.585,-1.519 1.03,-3.043 1.03,-3.625 0,-0.892 -0.628,-1.295 -2.102,-1.295 l 0,-0.893 c 2.058,0.043 3.624,0.089 4.655,0.089 1.026,0 2.593,-0.046 4.654,-0.135 l 0,0.046 c 2.027,0.045 3.531,0.089 4.554,0.089 1.029,0 2.548,-0.046 4.607,-0.135 l 0,0.894 c -2.146,0.135 -2.462,0.536 -2.462,2.818 l -0.045,1.791 0,21.743 3.043,0 c 2.996,0 4.475,-0.179 5.952,-0.851 1.654,-0.758 2.728,-2.549 2.728,-4.561 0,-2.687 -1.656,-4.788 -4.428,-5.638 -1.612,-0.495 -3.268,-0.717 -5.728,-0.717 -0.402,0 -0.625,-0.138 -0.625,-0.404 0,-0.223 0.133,-0.402 0.715,-1.073 4.786,-5.458 6.218,-7.243 10.556,-13.287 l 0.494,-0.626 c 1.297,0.046 2.276,0.046 2.91,0.046 0.938,0 1.919,-0.046 3.752,-0.135 l 0,0.894 c -0.622,0 -0.893,0.091 -1.295,0.269"
         inkscape:connector-curvature="0" />
    </g>
    <g
       transform="matrix(1.25,0,0,-1.25,144.72801,393.58484)"
       id="g5311">
      <path
         id="path5313"
         style="fill:#001712;fill-opacity:1;fill-rule:nonzero;stroke:none"
         d="m 0,0 9.71,0 c 4.875,-0.044 5.992,0.809 6.531,4.965 l 0.941,0 c -0.404,-3.4 -0.494,-4.248 -0.626,-7.604 l -18.792,0 c -1.697,0 -2.504,0 -4.476,-0.043 l 0,0.893 c 2.059,0.134 2.371,0.491 2.371,2.773 l 0,22.552 c 0,2.233 -0.312,2.636 -2.371,2.815 l 0,0.894 c 1.7,-0.087 2.285,-0.087 4.163,-0.087 l 17.939,0 c 0.09,-2.909 0.179,-3.669 0.581,-6.623 l -0.894,0 c -0.806,3.671 -1.298,3.983 -5.592,3.983 l -9.485,0 0,-10.334 5.995,0 c 2.998,0 3.534,0.402 3.804,2.815 l 0.847,0 c -0.087,-1.834 -0.087,-3.175 -0.087,-4.068 0,-0.938 0,-2.283 0.087,-4.072 l -0.803,0 c -0.314,2.37 -0.85,2.774 -3.848,2.774 L 0,11.633 0,0"
         inkscape:connector-curvature="0" />
    </g>
    <g
       transform="matrix(1.25,0,0,-1.25,230.55552,396.22854)"
       id="g5315">
      <path
         id="path5317"
         style="fill:#010205;fill-opacity:1;fill-rule:nonzero;stroke:none"
         d="m 0,0 -17.438,-7.344 0,34.149 c -0.175,1.019 -0.289,1.9 -3.217,1.028 -1.204,-0.361 -1.45,0.622 -0.02,1.268 3.893,1.766 16.324,7.494 18.411,8.211 0.763,0.26 2.13,0.138 2.243,-1.369 L 0,0"
         inkscape:connector-curvature="0" />
    </g>
    <g
       transform="matrix(1.25,0,0,-1.25,202.59552,396.22854)"
       id="g5319">
      <path
         id="path5321"
         style="fill:#010205;fill-opacity:1;fill-rule:nonzero;stroke:none"
         d="m 0,0 -17.437,-7.344 0,34.149 c -0.176,1.019 -0.288,1.9 -3.219,1.028 -1.205,-0.361 -1.451,0.622 -0.019,1.268 3.893,1.766 16.326,7.494 18.413,8.211 0.764,0.26 2.128,0.138 2.24,-1.369 L 0,0"
         inkscape:connector-curvature="0" />
    </g>
    <g
       transform="matrix(1.25,0,0,-1.25,42.541767,391.78104)"
       id="g5323">
      <path
         id="path5325"
         style="fill:#ffffff;fill-opacity:1;fill-rule:nonzero;stroke:none"
         d="m 0,0 -0.042,1.788 0,18.971 L 0,22.546 c 0,2.285 0.316,2.642 2.375,2.819 l 0,0.895 C 0.36,26.171 -1.161,26.128 -2.143,26.128 -3.177,26.082 -4.694,26.171 -6.708,26.26 l 0,-0.895 c 2.014,-0.177 2.371,-0.581 2.371,-2.819 L -4.337,0 c 0,-2.283 -0.357,-2.64 -2.371,-2.773 l 0,-0.894 c 2.014,0.042 3.531,0.091 4.517,0.091 1.03,0 2.551,-0.049 4.566,-0.091 l 0,0.848 C 0.316,-2.64 0,-2.283 0,0"
         inkscape:connector-curvature="0" />
    </g>
    <g
       transform="matrix(1.25,0,0,-1.25,76.519257,379.92734)"
       id="g5327">
      <path
         id="path5329"
         style="fill:#ffffff;fill-opacity:1;fill-rule:nonzero;stroke:none"
         d="M 0,0 4.566,12.17 9.127,0 0,0 z m 44.865,-12.038 c -0.313,0.183 -0.58,0.361 -0.849,0.586 -0.358,0.271 -0.674,0.58 -0.94,0.938 -0.272,0.315 -1.076,1.298 -2.416,2.91 l -0.403,0.581 -2.907,3.577 -2.998,3.581 -0.669,0.759 c 5.994,0.807 9.349,3.806 9.349,8.324 0,2.73 -1.388,5.142 -3.668,6.307 -1.835,0.983 -3.178,1.163 -7.829,1.163 l -7.028,0 -2.819,0.046 -1.608,0.043 0,-0.895 c 2.057,-0.177 2.372,-0.581 2.417,-2.819 l 0,-22.546 c -0.045,-2.283 -0.36,-2.64 -2.417,-2.773 l 0,-0.046 c -1.743,0.005 -2.022,0.358 -3.66,4.698 L 8.593,12.705 C 7.786,14.9 7.65,15.301 7.25,16.734 5.772,16.645 4.653,16.645 3.937,16.645 c -0.804,0 -1.969,0.043 -3.531,0.132 l 0,-0.895 c 1.343,-0.086 1.788,-0.357 1.788,-1.205 0,-0.538 -0.403,-1.88 -1.254,-4.166 L -5.993,-7.604 c -1.08,-2.804 -1.591,-3.945 -2.299,-4.389 -1.147,0.526 -2.364,1.794 -4.305,4.389 l -1.386,1.833 c -0.626,0.849 -1.698,2.101 -3.311,3.848 -2.237,2.369 -3.623,3.895 -4.204,4.474 -0.18,0.181 -0.407,0.402 -0.717,0.76 l 7.246,7.831 c 4.026,4.43 4.299,4.654 5.953,4.74 l 0,0.895 c -2.102,-0.089 -3.67,-0.132 -4.744,-0.132 -1.074,-0.046 -2.685,0.043 -4.784,0.132 l 0,-0.895 c 1.653,0 2.099,-0.223 2.099,-1.028 0,-0.624 -0.937,-2.057 -2.686,-3.939 l -7.781,-8.543 0.671,-0.671 c 6.085,-6.49 9.213,-10.201 12.481,-14.809 1.298,0.049 2.282,0.049 2.999,0.049 0.338,0 0.677,-0.011 1.053,-0.021 l 0,-0.07 c 0.385,0.005 0.745,0.019 1.091,0.024 0.443,-0.019 0.95,-0.043 1.569,-0.072 l 0,0.111 c 0.559,0.013 1.057,0.028 1.458,0.028 0.937,0 2.326,-0.049 4.157,-0.139 l 0,0.896 c -1.743,0.087 -2.322,0.402 -2.322,1.383 0,0.632 0.356,1.838 1.026,3.583 l 1.879,4.832 10.916,0 1.835,-4.832 c 0.583,-1.523 1.028,-3.041 1.028,-3.622 0,-0.897 -0.625,-1.298 -2.098,-1.298 l 0,-0.894 c 2.056,0.042 3.62,0.091 4.649,0.091 1.028,0 2.594,-0.049 4.651,-0.139 l 0,0.048 c 2.031,0.045 3.539,0.091 4.557,0.091 1.031,0 2.548,-0.049 4.609,-0.139 l 0,0.896 c -2.148,0.134 -2.463,0.536 -2.463,2.819 l -0.043,1.788 0,21.742 3.043,0 c 2.997,0 4.472,-0.181 5.954,-0.848 1.653,-0.762 2.726,-2.548 2.726,-4.565 0,-2.682 -1.655,-4.783 -4.43,-5.635 -1.611,-0.493 -3.266,-0.717 -5.727,-0.717 -0.404,0 -0.627,-0.134 -0.627,-0.403 0,-0.223 0.134,-0.402 0.717,-1.073 4.786,-5.458 6.22,-7.247 10.557,-13.287 l 0.494,-0.627 c 1.293,0.049 2.279,0.049 2.906,0.049 0.938,0 1.926,-0.049 3.759,-0.139 l 0,0.896 c -0.624,0 -0.893,0.087 -1.298,0.264"
         inkscape:connector-curvature="0" />
    </g>
    <g
       transform="matrix(1.25,0,0,-1.25,144.13302,393.01354)"
       id="g5331">
      <path
         id="path5333"
         style="fill:#ffffff;fill-opacity:1;fill-rule:nonzero;stroke:none"
         d="m 0,0 9.71,0 c 4.877,-0.045 5.994,0.803 6.531,4.967 l 0.939,0 C 16.776,1.568 16.69,0.716 16.553,-2.639 l -18.79,0 c -1.702,0 -2.502,0 -4.47,-0.042 l 0,0.894 c 2.054,0.133 2.369,0.49 2.369,2.773 l 0,22.546 c 0,2.238 -0.315,2.642 -2.369,2.819 l 0,0.895 c 1.699,-0.089 2.281,-0.089 4.155,-0.089 l 17.945,0 c 0.089,-2.909 0.175,-3.667 0.579,-6.623 l -0.894,0 c -0.802,3.669 -1.298,3.982 -5.594,3.982 l -9.484,0 0,-10.333 5.993,0 c 2.997,0 3.539,0.404 3.804,2.817 l 0.851,0 c -0.089,-1.831 -0.089,-3.172 -0.089,-4.068 0,-0.94 0,-2.284 0.089,-4.071 l -0.803,0 C 9.532,11.229 8.99,11.63 5.993,11.63 L 0,11.63 0,0"
         inkscape:connector-curvature="0" />
    </g>
    <g
       transform="matrix(1.25,0,0,-1.25,229.96052,395.65604)"
       id="g5335">
      <path
         id="path5337"
         style="fill:#ffffff;fill-opacity:1;fill-rule:nonzero;stroke:none"
         d="m 0,0 -17.434,-7.347 0,34.154 c -0.177,1.017 -0.292,1.902 -3.219,1.026 -1.207,-0.361 -1.451,0.621 -0.02,1.272 3.894,1.761 16.321,7.491 18.412,8.206 0.762,0.26 2.126,0.139 2.244,-1.369 L 0,0"
         inkscape:connector-curvature="0" />
    </g>
    <g
       transform="matrix(1.25,0,0,-1.25,202.00052,395.65604)"
       id="g5339">
      <path
         id="path5341"
         style="fill:#ffffff;fill-opacity:1;fill-rule:nonzero;stroke:none"
         d="m 0,0 -17.437,-7.347 0,34.154 c -0.173,1.017 -0.289,1.902 -3.217,1.026 -1.21,-0.361 -1.45,0.621 -0.021,1.272 3.896,1.761 16.325,7.491 18.414,8.206 0.76,0.26 2.125,0.139 2.242,-1.369 L 0,0"
         inkscape:connector-curvature="0" />
    </g>
    <path
       id="path5343"
       style="fill:#ce1041;fill-opacity:1;fill-rule:nonzero;stroke:none"
       d="m 23.525517,421.23859 219.260003,0 0,-13.35875 -219.260003,0 0,13.35875 z"
       inkscape:connector-curvature="0" />
    <g
       transform="matrix(1.25,0,0,-1.25,55.898017,413.90724)"
       id="g5345">
      <path
         id="path5347"
         style="fill:#010205;fill-opacity:1;fill-rule:nonzero;stroke:none"
         d="m 0,0 0.03,0 c 0.171,0.242 0.405,0.55 0.602,0.789 l 2.037,2.381 1.512,0 -2.669,-2.842 3.043,-4.07 -1.532,0 L 0.648,-0.418 0,-1.141 l 0,-2.601 -1.25,0 0,10.148 1.25,0 L 0,0"
         inkscape:connector-curvature="0" />
    </g>
    <g
       transform="matrix(1.25,0,0,-1.25,78.023017,413.28484)"
       id="g5349">
      <path
         id="path5351"
         style="fill:#010205;fill-opacity:1;fill-rule:nonzero;stroke:none"
         d="m 0,0 c 0,1.384 -0.511,2.831 -2.625,2.831 -0.872,0 -1.709,-0.24 -2.285,-0.609 l 0.29,-0.836 c 0.481,0.325 1.154,0.518 1.798,0.518 1.419,0.006 1.574,-1.033 1.574,-1.599 l 0,-0.142 c -2.669,0.015 -4.155,-0.902 -4.155,-2.577 0,-0.994 0.717,-1.983 2.113,-1.983 0.99,0 1.738,0.488 2.116,1.027 l 0.037,0 0.111,-0.87 1.135,0 C 0.032,-3.768 0,-3.176 0,-2.586 L 0,0 z m -1.221,-1.914 c 0,-0.119 -0.016,-0.261 -0.063,-0.397 -0.197,-0.584 -0.772,-1.156 -1.686,-1.156 -0.626,0 -1.171,0.378 -1.171,1.202 0,1.338 1.557,1.583 2.92,1.557 l 0,-1.206"
         inkscape:connector-curvature="0" />
    </g>
    <g
       transform="matrix(1.25,0,0,-1.25,89.501757,412.63854)"
       id="g5353">
      <path
         id="path5355"
         style="fill:#010205;fill-opacity:1;fill-rule:nonzero;stroke:none"
         d="m 0,0 c 0,0.818 -0.022,1.513 -0.06,2.155 l 1.103,0 0.05,-1.355 0.043,0 c 0.326,0.928 1.088,1.514 1.924,1.514 0.137,0 0.237,-0.006 0.353,-0.037 l 0,-1.181 C 3.282,1.119 3.155,1.132 2.985,1.132 2.098,1.132 1.473,0.466 1.302,-0.481 1.269,-0.653 1.249,-0.86 1.249,-1.063 l 0,-3.694 L 0,-4.757 0,0"
         inkscape:connector-curvature="0" />
    </g>
    <g
       transform="matrix(1.25,0,0,-1.25,111.12677,414.54974)"
       id="g5357">
      <path
         id="path5359"
         style="fill:#010205;fill-opacity:1;fill-rule:nonzero;stroke:none"
         d="m 0,0 c 0.028,0.138 0.041,0.329 0.041,0.591 0,1.275 -0.593,3.252 -2.846,3.252 -2.02,0 -3.253,-1.635 -3.253,-3.731 0,-2.075 1.278,-3.493 3.401,-3.493 1.101,0 1.868,0.243 2.307,0.441 l -0.218,0.893 c -0.467,-0.189 -1.018,-0.352 -1.916,-0.352 -1.262,0 -2.341,0.702 -2.367,2.399 L 0,0 z m -4.836,0.905 c 0.101,0.877 0.648,2.037 1.931,2.037 1.407,0 1.744,-1.243 1.737,-2.037 l -3.668,0"
         inkscape:connector-curvature="0" />
    </g>
    <g
       transform="matrix(1.25,0,0,-1.25,123.54927,408.43234)"
       id="g5361">
      <path
         id="path5363"
         style="fill:#010205;fill-opacity:1;fill-rule:nonzero;stroke:none"
         d="m 0,0 -0.025,0 -1.613,-0.868 -0.243,0.952 2.032,1.087 1.067,0 0,-9.293 L 0,-8.122 0,0"
         inkscape:connector-curvature="0" />
    </g>
    <g
       transform="matrix(1.25,0,0,-1.25,138.80302,408.43234)"
       id="g5365">
      <path
         id="path5367"
         style="fill:#010205;fill-opacity:1;fill-rule:nonzero;stroke:none"
         d="m 0,0 -0.03,0 -1.611,-0.868 -0.243,0.952 2.028,1.087 1.069,0 0,-9.293 L 0,-8.122 0,0"
         inkscape:connector-curvature="0" />
    </g>
    <g
       transform="matrix(1.25,0,0,-1.25,152.87552,418.78104)"
       id="g5369">
      <path
         id="path5371"
         style="fill:#010205;fill-opacity:1;fill-rule:nonzero;stroke:none"
         d="m 0,0 c -0.484,0 -0.836,0.391 -0.829,0.894 0,0.528 0.355,0.907 0.852,0.907 0.506,0 0.842,-0.374 0.846,-0.907 C 0.869,0.391 0.535,0 0.015,0 L 0,0"
         inkscape:connector-curvature="0" />
    </g>
    <g
       transform="matrix(1.25,0,0,-1.25,171.36051,418.27354)"
       id="g5373">
      <path
         id="path5375"
         style="fill:#010205;fill-opacity:1;fill-rule:nonzero;stroke:none"
         d="m 0,0 c -0.333,-0.159 -1.055,-0.402 -1.984,-0.402 -2.086,0 -3.449,1.42 -3.449,3.532 0,2.135 1.449,3.689 3.716,3.689 0.739,0 1.409,-0.187 1.746,-0.365 L -0.249,5.486 c -0.312,0.164 -0.781,0.332 -1.47,0.332 -1.581,0 -2.446,-1.182 -2.445,-2.62 0,-1.602 1.032,-2.586 2.412,-2.586 0.705,0 1.184,0.176 1.539,0.333 L 0,0"
         inkscape:connector-curvature="0" />
    </g>
    <g
       transform="matrix(1.25,0,0,-1.25,185.57802,418.78104)"
       id="g5377">
      <path
         id="path5379"
         style="fill:#010205;fill-opacity:1;fill-rule:nonzero;stroke:none"
         d="m 0,0 c 1.645,0 3.422,1.12 3.422,3.68 0,2.105 -1.34,3.548 -3.327,3.548 -1.915,0 -3.436,-1.35 -3.436,-3.665 C -3.341,1.364 -1.894,0 -0.015,0 L 0,0 z m 0.009,0.941 c -1.215,0 -2.086,1.139 -2.086,2.658 0,1.309 0.645,2.685 2.122,2.685 1.493,0 2.082,-1.479 2.082,-2.647 0,-1.567 -0.903,-2.696 -2.106,-2.696 l -0.012,0"
         inkscape:connector-curvature="0" />
    </g>
    <g
       transform="matrix(1.25,0,0,-1.25,200.77301,412.27854)"
       id="g5381">
      <path
         id="path5383"
         style="fill:#010205;fill-opacity:1;fill-rule:nonzero;stroke:none"
         d="m 0,0 c 0,0.72 -0.023,1.296 -0.054,1.867 l 1.091,0 0.068,-1.112 0.035,0 c 0.383,0.659 1.027,1.271 2.184,1.271 0.934,0 1.647,-0.572 1.943,-1.387 l 0.031,0 c 0.221,0.394 0.49,0.689 0.78,0.897 0.418,0.316 0.868,0.49 1.521,0.49 0.923,0 2.286,-0.597 2.286,-3.001 l 0,-4.07 -1.229,0 0,3.91 c 0,1.336 -0.491,2.13 -1.501,2.13 C 6.434,0.995 5.881,0.471 5.658,-0.133 5.6,-0.316 5.557,-0.546 5.557,-0.769 l 0,-4.276 -1.227,0 0,4.149 C 4.33,0.201 3.839,0.995 2.894,0.995 2.108,0.995 1.533,0.37 1.324,-0.26 1.264,-0.445 1.23,-0.663 1.23,-0.879 l 0,-4.166 -1.23,0 L 0,0"
         inkscape:connector-curvature="0" />
    </g>
    <g
       transform="matrix(1.25,0,0,-1.25,55.465527,413.53604)"
       id="g5385">
      <path
         id="path5387"
         style="fill:#ffffff;fill-opacity:1;fill-rule:nonzero;stroke:none"
         d="m 0,0 0.027,0 c 0.171,0.241 0.408,0.546 0.604,0.787 l 2.039,2.382 1.512,0 -2.673,-2.841 3.042,-4.073 -1.529,0 -2.38,3.324 L 0,-1.143 l 0,-2.602 -1.248,0 0,10.151 L 0,6.406 0,0"
         inkscape:connector-curvature="0" />
    </g>
    <g
       transform="matrix(1.25,0,0,-1.25,77.594257,412.91354)"
       id="g5389">
      <path
         id="path5391"
         style="fill:#ffffff;fill-opacity:1;fill-rule:nonzero;stroke:none"
         d="m 0,0 c 0,1.384 -0.516,2.83 -2.629,2.83 -0.876,0 -1.709,-0.236 -2.283,-0.609 l 0.285,-0.834 c 0.482,0.328 1.157,0.516 1.802,0.516 1.415,0.008 1.574,-1.03 1.574,-1.595 l 0,-0.145 c -2.669,0.016 -4.155,-0.904 -4.155,-2.579 0,-0.992 0.712,-1.982 2.109,-1.982 0.991,0 1.741,0.488 2.117,1.027 l 0.036,0 0.115,-0.872 1.129,0 C 0.025,-3.768 0,-3.177 0,-2.587 L 0,0 z m -1.229,-1.917 c 0,-0.115 -0.013,-0.257 -0.059,-0.392 -0.196,-0.585 -0.778,-1.159 -1.687,-1.159 -0.631,0 -1.17,0.379 -1.17,1.206 0,1.336 1.556,1.579 2.916,1.552 l 0,-1.207"
         inkscape:connector-curvature="0" />
    </g>
    <g
       transform="matrix(1.25,0,0,-1.25,89.064267,412.26724)"
       id="g5393">
      <path
         id="path5395"
         style="fill:#ffffff;fill-opacity:1;fill-rule:nonzero;stroke:none"
         d="m 0,0 c 0,0.818 -0.024,1.514 -0.058,2.154 l 1.102,0 0.049,-1.353 0.041,0 C 1.461,1.727 2.225,2.313 3.063,2.313 3.199,2.313 3.3,2.306 3.41,2.276 l 0,-1.181 C 3.281,1.119 3.158,1.131 2.983,1.131 2.098,1.131 1.473,0.464 1.299,-0.478 1.272,-0.651 1.252,-0.86 1.252,-1.066 l 0,-3.694 L 0,-4.76 0,0"
         inkscape:connector-curvature="0" />
    </g>
    <g
       transform="matrix(1.25,0,0,-1.25,110.68928,414.17604)"
       id="g5397">
      <path
         id="path5399"
         style="fill:#ffffff;fill-opacity:1;fill-rule:nonzero;stroke:none"
         d="m 0,0 c 0.025,0.136 0.042,0.324 0.042,0.59 0,1.271 -0.589,3.25 -2.847,3.25 -2.014,0 -3.25,-1.636 -3.25,-3.728 0,-2.079 1.276,-3.495 3.4,-3.495 1.099,0 1.868,0.241 2.309,0.441 l -0.223,0.894 C -1.032,-2.239 -1.583,-2.402 -2.483,-2.402 -3.746,-2.402 -4.824,-1.7 -4.848,0 L 0,0 z m -4.834,0.905 c 0.102,0.874 0.647,2.035 1.932,2.035 1.408,0 1.744,-1.244 1.736,-2.035 l -3.668,0"
         inkscape:connector-curvature="0" />
    </g>
    <g
       transform="matrix(1.25,0,0,-1.25,123.11802,408.05974)"
       id="g5401">
      <path
         id="path5403"
         style="fill:#ffffff;fill-opacity:1;fill-rule:nonzero;stroke:none"
         d="m 0,0 -0.027,0 -1.614,-0.868 -0.245,0.953 2.034,1.084 1.067,0 0,-9.295 L 0,-8.126 0,0"
         inkscape:connector-curvature="0" />
    </g>
    <g
       transform="matrix(1.25,0,0,-1.25,138.36802,408.05974)"
       id="g5405">
      <path
         id="path5407"
         style="fill:#ffffff;fill-opacity:1;fill-rule:nonzero;stroke:none"
         d="m 0,0 -0.031,0 -1.612,-0.868 -0.242,0.953 2.03,1.084 1.067,0 0,-9.295 L 0,-8.126 0,0"
         inkscape:connector-curvature="0" />
    </g>
    <g
       transform="matrix(1.25,0,0,-1.25,152.44177,418.41104)"
       id="g5409">
      <path
         id="path5411"
         style="fill:#ffffff;fill-opacity:1;fill-rule:nonzero;stroke:none"
         d="m 0,0 c -0.486,0 -0.839,0.389 -0.829,0.896 0,0.525 0.352,0.91 0.852,0.91 0.504,0 0.838,-0.379 0.846,-0.91 C 0.869,0.389 0.531,0 0.013,0 L 0,0"
         inkscape:connector-curvature="0" />
    </g>
    <g
       transform="matrix(1.25,0,0,-1.25,170.92552,417.90234)"
       id="g5413">
      <path
         id="path5415"
         style="fill:#ffffff;fill-opacity:1;fill-rule:nonzero;stroke:none"
         d="m 0,0 c -0.332,-0.161 -1.056,-0.402 -1.985,-0.402 -2.086,0 -3.448,1.418 -3.448,3.531 0,2.135 1.449,3.69 3.714,3.69 0.742,0 1.409,-0.188 1.746,-0.368 L -0.251,5.485 c -0.309,0.165 -0.78,0.332 -1.469,0.332 -1.578,0 -2.442,-1.181 -2.44,-2.618 0,-1.604 1.029,-2.585 2.405,-2.585 0.707,0 1.188,0.178 1.542,0.331 L 0,0"
         inkscape:connector-curvature="0" />
    </g>
    <g
       transform="matrix(1.25,0,0,-1.25,185.14052,418.41104)"
       id="g5417">
      <path
         id="path5419"
         style="fill:#ffffff;fill-opacity:1;fill-rule:nonzero;stroke:none"
         d="m 0,0 c 1.648,0 3.424,1.12 3.424,3.68 0,2.106 -1.338,3.548 -3.328,3.548 -1.914,0 -3.434,-1.352 -3.434,-3.667 C -3.338,1.366 -1.891,0 -0.016,0 L 0,0 z m 0.01,0.941 c -1.217,0 -2.082,1.144 -2.082,2.661 0,1.308 0.643,2.685 2.119,2.685 1.493,0 2.083,-1.48 2.083,-2.648 0,-1.571 -0.903,-2.698 -2.106,-2.698 l -0.014,0"
         inkscape:connector-curvature="0" />
    </g>
    <g
       transform="matrix(1.25,0,0,-1.25,200.33802,411.90854)"
       id="g5421">
      <path
         id="path5423"
         style="fill:#ffffff;fill-opacity:1;fill-rule:nonzero;stroke:none"
         d="m 0,0 c 0,0.722 -0.023,1.295 -0.056,1.867 l 1.091,0 0.066,-1.111 0.038,0 c 0.386,0.657 1.029,1.27 2.183,1.27 0.936,0 1.651,-0.571 1.946,-1.387 l 0.03,0 c 0.222,0.393 0.492,0.692 0.78,0.901 0.418,0.312 0.869,0.486 1.524,0.486 0.919,0 2.283,-0.598 2.283,-3 l 0,-4.073 -1.231,0 0,3.91 c 0,1.34 -0.492,2.134 -1.499,2.134 C 6.433,0.997 5.881,0.473 5.66,-0.134 5.599,-0.315 5.559,-0.541 5.559,-0.765 l 0,-4.282 -1.232,0 0,4.153 C 4.327,0.203 3.84,0.997 2.889,0.997 2.108,0.997 1.534,0.371 1.324,-0.261 1.263,-0.44 1.232,-0.664 1.232,-0.877 l 0,-4.17 L 0,-5.047 0,0"
         inkscape:connector-curvature="0" />
    </g>
  </g>
</svg>
